<svg id="Capa_1" enable-background="new 0 0 512 512" height="512" viewBox="0 0 512 512" width="512" xmlns="http://www.w3.org/2000/svg"><g><g><path d="m480 412.511-120-79.995v-203.027h-240v-120h392v330h-32z" fill="#ffdf40"/></g><path d="m315 129.489h45v203.027l120 79.995v-73.022h32v-330h-197z" fill="#ffbe40"/><g><path d="m30 502.511v-73.022h-30v-330h390v330h-250.459z" fill="#6cf"/></g><path d="m195 99.489h195v330h-195z" fill="#59abff"/><g fill="#f3f5f9"><path d="m210 309.489v-60h-60v30h30v30h-30v30h90v-30z"/><path d="m180 189.489h30v30h-30z"/></g><g fill="#e1e6f0"><path d="m195 189.489h15v30h-15z"/><path d="m210 249.489h-15v90h45v-30h-30z"/></g></g></svg>